<?xml version="1.0" encoding="UTF-8"?>
<svg version="1.1" xmlns="http://www.w3.org/2000/svg" width="225" height="225">
<path d="M0 0 C74.25 0 148.5 0 225 0 C225 74.25 225 148.5 225 225 C150.75 225 76.5 225 0 225 C0 150.75 0 76.5 0 0 Z " fill="#FEFEFE" transform="translate(0,0)"/>
<path d="M0 0 C1.30363495 -0.00043808 1.30363495 -0.00043808 2.63360596 -0.00088501 C5.48508954 0.0005001 8.33630662 0.01602254 11.18774414 0.03173828 C13.17314003 0.03547132 15.15853776 0.03831692 17.14393616 0.04031372 C22.35370017 0.04792723 27.56335157 0.06755606 32.77307129 0.08972168 C38.09552487 0.11022936 43.41799676 0.11932595 48.74047852 0.12939453 C59.17217642 0.15080417 69.6037614 0.18596765 80.03540039 0.22705078 C80.03540039 11.77705078 80.03540039 23.32705078 80.03540039 35.22705078 C74.4834082 35.24123047 68.93141602 35.25541016 63.21118164 35.27001953 C59.67010406 35.29010328 56.12915321 35.3116458 52.58813477 35.33837891 C46.98155844 35.38056913 41.37530379 35.41768512 35.76855469 35.42260742 C31.24244749 35.42692154 26.71706366 35.455639 22.19118309 35.50048256 C20.47428812 35.51335892 18.75730614 35.51780069 17.04036903 35.51320457 C2.99008468 35.48438362 -8.71326772 37.45053309 -19.74584961 46.99658203 C-28.36527986 55.66153744 -33.83636928 66.74911768 -34.33959961 79.03955078 C-34.19908335 90.57749661 -30.11725907 102.00631065 -21.96459961 110.22705078 C-21.35745117 110.85998047 -20.75030273 111.49291016 -20.12475586 112.14501953 C-7.12235774 124.61562223 7.25577208 123.48623294 25.03540039 124.22705078 C25.03540039 105.74705078 25.03540039 87.26705078 25.03540039 68.22705078 C44.17540039 68.22705078 63.31540039 68.22705078 83.03540039 68.22705078 C76.28279897 76.10508578 76.28279897 76.10508578 72.98892212 79.4543457 C72.2433757 80.21427322 71.49782928 80.97420074 70.72969055 81.75715637 C69.93161484 82.56577621 69.13353912 83.37439606 68.3112793 84.20751953 C67.4551857 85.07821579 66.5990921 85.94891205 65.71705627 86.84599304 C57.8810225 94.80722368 50.01752448 102.74148872 42.14463234 110.66625977 C36.33369658 116.51620892 30.53806029 122.38050087 24.7612673 128.26417255 C20.68585972 132.41240737 16.59339621 136.54332372 12.48801935 140.66189861 C10.04050086 143.11827437 7.60124792 145.58172309 5.18028641 148.06430054 C2.48416929 150.82827289 -0.24677827 153.55611911 -2.98168945 156.28173828 C-3.77571671 157.10655197 -4.56974396 157.93136566 -5.38783264 158.78117371 C-10.78489388 164.07896268 -10.78489388 164.07896268 -14.22231293 164.51046085 C-16.38937378 164.26295471 -16.38937378 164.26295471 -19.96459961 163.22705078 C-20.68615234 163.01943115 -21.40770508 162.81181152 -22.15112305 162.59790039 C-22.70316406 162.36079346 -23.25520508 162.12368652 -23.82397461 161.87939453 C-24.77639038 161.4722522 -24.77639038 161.4722522 -25.74804688 161.05688477 C-26.72149048 160.61517944 -26.72149048 160.61517944 -27.71459961 160.16455078 C-28.40416748 159.85654541 -29.09373535 159.54854004 -29.80419922 159.23120117 C-36.34504035 156.21473873 -42.17474088 152.52476999 -47.96459961 148.22705078 C-48.59366211 147.78232422 -49.22272461 147.33759766 -49.87084961 146.87939453 C-65.43890269 134.87290076 -75.92122575 113.53066777 -78.64819336 94.44189453 C-80.2615776 78.04911395 -78.30960325 62.06437906 -70.96459961 47.22705078 C-70.5456543 46.32857422 -70.12670898 45.43009766 -69.69506836 44.50439453 C-60.72142724 26.53125166 -44.09844052 11.63100662 -25.12182617 5.06396484 C-22.08478831 4.06266084 -19.03223003 3.13009083 -15.96459961 2.22705078 C-14.92142075 1.88022247 -13.87824188 1.53339417 -12.80345154 1.17605591 C-8.40759682 0.08935375 -4.50194642 -0.04011093 0 0 Z " fill="#148DD4" transform="translate(90.964599609375,29.77294921875)"/>
<path d="M0 0 C22.77 0 45.54 0 69 0 C64.98469575 4.68452163 60.99658107 9.14864525 56.64331055 13.48608398 C56.03931931 14.09182755 55.43532806 14.69757111 54.81303406 15.32167053 C52.84008284 17.29898059 50.86354761 19.27266097 48.88671875 21.24609375 C47.50748836 22.62599837 46.12840639 24.00605136 44.74946594 25.38624573 C41.87227773 28.26490235 38.99330293 31.14175679 36.11303711 34.01733398 C32.41277421 37.71186782 28.71706194 41.41091624 25.0226469 45.11129665 C22.18242869 47.95511622 19.33984823 50.79656489 16.49653053 53.63728523 C15.13176791 55.00137906 13.76775244 56.36622081 12.4044857 57.73180962 C10.50863029 59.63018802 8.60962807 61.52535969 6.7097168 63.41967773 C6.14299255 63.98842621 5.57626831 64.55717468 4.99237061 65.14315796 C1.11426892 69 1.11426892 69 0 69 C0 46.23 0 23.46 0 0 Z " fill="#E4062C" transform="translate(146,128)"/>
<path d="M0 0 C0.99 0.33 1.98 0.66 3 1 C-0.3 4.3 -3.6 7.6 -7 11 C-7.33 10.34 -7.66 9.68 -8 9 C-6.85459775 7.68712379 -5.70866567 6.37470979 -4.5625 5.0625 C-3.92441406 4.33160156 -3.28632812 3.60070313 -2.62890625 2.84765625 C-1.77458541 1.87860647 -0.91348825 0.91348825 0 0 Z " fill="#2092D6" transform="translate(40,50)"/>
</svg>
