<?xml version="1.0" encoding="UTF-8"?>
<svg version="1.1" xmlns="http://www.w3.org/2000/svg" width="900" height="500">
<path d="M0 0 C297 0 594 0 900 0 C900 165 900 330 900 500 C603 500 306 500 0 500 C0 335 0 170 0 0 Z " fill="#FEFEFE" transform="translate(0,0)"/>
<path d="M0 0 C9.3225 -0.061875 18.645 -0.12375 28.25 -0.1875 C31.16875977 -0.21481201 34.08751953 -0.24212402 37.09472656 -0.27026367 C39.44335518 -0.27903665 41.79198842 -0.28667866 44.140625 -0.29296875 C45.33155762 -0.30831665 46.52249023 -0.32366455 47.74951172 -0.33947754 C59.7511517 -0.34317718 71.05031178 1.33930872 79.97265625 9.890625 C86.24162588 16.63588185 87.46574053 22.62825368 87.3203125 31.73828125 C86.67198351 38.34016794 83.75906165 44.36617682 79 49 C75.74492671 51.14608933 72.40784294 53.10747653 69 55 C69.73605469 55.24234375 70.47210937 55.4846875 71.23046875 55.734375 C78.76940956 58.32370738 83.69092357 60.37030939 87.8125 67.4375 C91.52369166 75.42360863 91.06004966 83.61592321 88.375 91.875 C84.51376899 101.01722737 79.6886 104.61466793 70.70703125 108.73828125 C48.75587061 116.20954035 20.42642393 112 0 112 C0 75.04 0 38.08 0 0 Z " fill="#010101" transform="translate(445,194)"/>
<path d="M0 0 C1.51815699 0.00015911 3.0363194 0.00585313 4.55444336 0.01586914 C5.35208603 0.01728409 6.1497287 0.01869904 6.97154236 0.02015686 C9.52916146 0.02577223 12.08669429 0.03832727 14.64428711 0.05102539 C16.37410356 0.05603841 18.10392137 0.06060166 19.83374023 0.06469727 C24.08312264 0.07574664 28.33244023 0.09302153 32.58178711 0.11352539 C35.62173839 5.95556272 38.12227202 11.83846 40.42553711 18.00415039 C40.96889961 19.44186798 40.96889961 19.44186798 41.52323914 20.90863037 C42.71316654 24.05886337 43.89743639 27.21119207 45.08178711 30.36352539 C46.7735663 34.84874436 48.46849176 39.33277124 50.16381836 43.81665039 C50.60115799 44.97434937 51.03849762 46.13204834 51.48908997 47.3248291 C54.71984013 55.86627946 57.99028584 64.39188937 61.28100586 72.91040039 C61.74294342 74.10683167 62.20488098 75.30326294 62.68081665 76.53594971 C64.49065373 81.22168737 66.30130371 85.90709571 68.11791992 90.59020996 C69.37299268 93.82607544 70.62418055 97.0634197 71.87475586 100.30102539 C72.2519426 101.26949402 72.62912933 102.23796265 73.01774597 103.23577881 C73.35751968 104.11711487 73.6972934 104.99845093 74.04736328 105.90649414 C74.34535324 106.67501709 74.6433432 107.44354004 74.95036316 108.23535156 C75.58178711 110.11352539 75.58178711 110.11352539 75.58178711 112.11352539 C64.69178711 112.11352539 53.80178711 112.11352539 42.58178711 112.11352539 C39.94178711 104.52352539 37.30178711 96.93352539 34.58178711 89.11352539 C20.72178711 88.78352539 6.86178711 88.45352539 -7.41821289 88.11352539 C-8.40821289 91.41352539 -9.39821289 94.71352539 -10.41821289 98.11352539 C-12.06821289 102.73352539 -13.71821289 107.35352539 -15.41821289 112.11352539 C-25.64821289 112.11352539 -35.87821289 112.11352539 -46.41821289 112.11352539 C-41.54940606 98.00548671 -36.41348846 84.03721874 -31.04321289 70.11352539 C-30.26445641 68.08869689 -29.48589575 66.06379307 -28.70751953 64.03881836 C-27.09782533 59.85303394 -25.48608219 55.66804642 -23.87280273 51.48364258 C-21.81602559 46.14822017 -19.76478231 40.81069019 -17.715271 35.47247314 C-16.14110599 31.37372926 -14.56443168 27.27595427 -12.98699951 23.1784668 C-12.23430241 21.22238835 -11.48238673 19.26600902 -10.73126221 17.30932617 C-9.69069642 14.59982547 -8.64673195 11.89165975 -7.60180664 9.18383789 C-7.2922554 8.37576691 -6.98270416 7.56769592 -6.66377258 6.73513794 C-4.11017497 0.13650678 -4.11017497 0.13650678 0 0 Z " fill="#020202" transform="translate(356.418212890625,193.886474609375)"/>
<path d="M0 0 C1.25244003 0.0028299 2.50488007 0.00565979 3.79527283 0.00857544 C7.09472481 0.01782096 10.39397447 0.03573089 13.69335938 0.0579834 C17.07224068 0.07859131 20.45115183 0.08760882 23.83007812 0.09765625 C30.43758811 0.11962623 37.04492684 0.15410925 43.65234375 0.1953125 C43.65234375 8.1153125 43.65234375 16.0353125 43.65234375 24.1953125 C38.91890625 24.26878906 38.91890625 24.26878906 34.08984375 24.34375 C31.01509076 24.39784439 27.94041218 24.45511862 24.86572266 24.51269531 C22.73784995 24.55084893 20.60991575 24.58572496 18.48193359 24.6171875 C15.4135142 24.66313482 12.34551328 24.72107938 9.27734375 24.78125 C8.33431396 24.79280121 7.39128418 24.80435242 6.41967773 24.81625366 C-3.63823935 25.03822537 -11.79988942 27.01369828 -19.30078125 34.01953125 C-25.92009955 41.09775187 -27.9996542 47.50337517 -27.68359375 57.1796875 C-26.60138065 66.89443763 -21.5171919 73.77553221 -14.34765625 80.1953125 C-6.35546173 86.39725545 2.56112294 84.1953125 12.65234375 84.1953125 C12.98234375 71.9853125 13.31234375 59.7753125 13.65234375 47.1953125 C23.88234375 47.1953125 34.11234375 47.1953125 44.65234375 47.1953125 C44.65234375 68.3153125 44.65234375 89.4353125 44.65234375 111.1953125 C31.65859375 111.2571875 31.65859375 111.2571875 18.40234375 111.3203125 C15.69241211 111.33852051 12.98248047 111.35672852 10.19042969 111.37548828 C8.00586138 111.38133783 5.82129087 111.38643229 3.63671875 111.390625 C2.53215332 111.40085693 1.42758789 111.41108887 0.28955078 111.42163086 C-16.98697946 111.42544466 -30.60329951 107.25078509 -43.34765625 95.1953125 C-53.85759329 84.08480763 -59.76850187 71.17502267 -59.66015625 55.8828125 C-59.6545166 55.04685547 -59.64887695 54.21089844 -59.64306641 53.34960938 C-59.32906932 37.32021377 -52.54686133 25.41430416 -41.34765625 14.1953125 C-40.78304687 13.61910156 -40.2184375 13.04289063 -39.63671875 12.44921875 C-28.32779333 1.82986195 -14.82892824 -0.12752295 0 0 Z " fill="#020202" transform="translate(78.34765625,192.8046875)"/>
<path d="M0 0 C1.14088074 0.00007553 2.28176147 0.00015106 3.45721436 0.00022888 C4.68337463 0.00539017 5.90953491 0.01055145 7.17285156 0.01586914 C8.43236633 0.01728409 9.6918811 0.01869904 10.98956299 0.02015686 C14.33012775 0.02480466 17.67062378 0.03378258 21.01116943 0.04486084 C24.42313037 0.05510941 27.83509841 0.05966185 31.24707031 0.06469727 C37.93589381 0.07572576 44.62467577 0.09299015 51.31347656 0.11352539 C51.31347656 8.03352539 51.31347656 15.95352539 51.31347656 24.11352539 C47.95289063 24.13930664 44.59230469 24.16508789 41.12988281 24.19165039 C37.8531885 24.23012977 34.57664841 24.27527115 31.30004883 24.32104492 C29.03352293 24.34916439 26.76690062 24.37042353 24.50024414 24.38452148 C21.23045815 24.40607578 17.96182048 24.4527915 14.69238281 24.50415039 C13.18714806 24.50599335 13.18714806 24.50599335 11.65150452 24.50787354 C2.47035763 24.69639436 -5.91115378 27.72676796 -12.68652344 34.11352539 C-17.98136036 40.77069435 -20.21436429 47.94768542 -19.99511719 56.43383789 C-18.98647353 65.19243974 -15.24824422 72.27941477 -8.68652344 78.11352539 C1.39715152 85.54652844 5.6248937 84.11352539 20.31347656 84.11352539 C20.64347656 71.90352539 20.97347656 59.69352539 21.31347656 47.11352539 C31.54347656 47.11352539 41.77347656 47.11352539 52.31347656 47.11352539 C52.31347656 68.23352539 52.31347656 89.35352539 52.31347656 111.11352539 C39.31972656 111.17540039 39.31972656 111.17540039 26.06347656 111.23852539 C23.35354492 111.2567334 20.64361328 111.27494141 17.8515625 111.29370117 C15.66699419 111.29955072 13.48242368 111.30464518 11.29785156 111.30883789 C10.19328613 111.31906982 9.0887207 111.32930176 7.95068359 111.33984375 C-9.32584665 111.34365755 -22.9421667 107.16899798 -35.68652344 95.11352539 C-47.79825811 82.30969159 -52.39995566 68.40053034 -51.92871094 51.07055664 C-50.9828911 35.61708094 -43.97860707 23.07135853 -32.73730469 12.71508789 C-25.81083979 6.65144275 -18.58412782 3.28329207 -9.68652344 1.11352539 C-9.09788513 0.93966812 -8.50924683 0.76581085 -7.902771 0.58668518 C-5.2188588 0.0136809 -2.74533722 -0.00607375 0 0 Z " fill="#020202" transform="translate(245.6865234375,192.886474609375)"/>
<path d="M0 0 C26.07 0 52.14 0 79 0 C79 7.26 79 14.52 79 22 C62.83 22 46.66 22 30 22 C30 29.26 30 36.52 30 44 C45.18 44 60.36 44 76 44 C76 51.26 76 58.52 76 66 C60.82 66 45.64 66 30 66 C30 74.25 30 82.5 30 91 C46.83 91 63.66 91 81 91 C81 97.93 81 104.86 81 112 C54.27 112 27.54 112 0 112 C0 75.04 0 38.08 0 0 Z " fill="#030303" transform="translate(753,194)"/>
<path d="M0 0 C11.22 0 22.44 0 34 0 C43.88985656 18.68084016 43.88985656 18.68084016 48.375 27.625 C48.8380957 28.54442383 48.8380957 28.54442383 49.31054688 29.48242188 C51.68981331 34.25643805 53.8630284 39.11330008 56 44 C56.556875 42.8140625 57.11375 41.628125 57.6875 40.40625 C61.7761663 31.72380971 65.89939137 23.06750785 70.25976562 14.51757812 C72.68610015 9.73216355 74.81124257 4.92470423 77 0 C88.55 0 100.1 0 112 0 C106.37641723 11.24716553 106.37641723 11.24716553 104.125 15.015625 C103.62129883 15.86310303 103.11759766 16.71058105 102.59863281 17.58374023 C102.07108398 18.46360596 101.54353516 19.34347168 101 20.25 C99.84884393 22.18352564 98.69780572 24.11712146 97.546875 26.05078125 C96.66805664 27.52345459 96.66805664 27.52345459 95.77148438 29.02587891 C92.41301327 34.6643705 89.08656464 40.32181364 85.75390625 45.97558594 C85.26277344 46.80735352 84.77164063 47.63912109 84.265625 48.49609375 C83.51430298 49.80574097 83.51430298 49.80574097 82.74780273 51.1418457 C81 54 81 54 78.64477539 57.20776367 C70.82229961 68.17631383 70.7416206 78.28512826 70.9375 91.4375 C70.9344178 93.44076564 70.92728352 95.44402931 70.91601562 97.44726562 C70.88993035 102.30113324 70.94658821 107.14380021 71 112 C61.1 112 51.2 112 41 112 C41.13535156 107.7615625 41.13535156 107.7615625 41.2734375 103.4375 C41.71004049 81.66323482 41.52318452 65.48807715 27.91650391 47.61230469 C24.70794106 43.2388496 22.1188717 38.52005354 19.4375 33.8125 C14.43392792 25.28580771 9.2492633 16.87540052 3.96069336 8.52270508 C3.44128174 7.69536865 2.92187012 6.86803223 2.38671875 6.015625 C1.92483154 5.28633789 1.46294434 4.55705078 0.98706055 3.80566406 C0 2 0 2 0 0 Z " fill="#030303" transform="translate(535,194)"/>
<path d="M0 0 C28.05 0 56.1 0 85 0 C85 7.26 85 14.52 85 22 C76.09 22 67.18 22 58 22 C58 51.7 58 81.4 58 112 C48.1 112 38.2 112 28 112 C28 82.3 28 52.6 28 22 C18.76 22 9.52 22 0 22 C0 14.74 0 7.48 0 0 Z " fill="#030303" transform="translate(655,194)"/>
<path d="M0 0 C9.9 0 19.8 0 30 0 C30 36.63 30 73.26 30 111 C20.1 111 10.2 111 0 111 C0 74.37 0 37.74 0 0 Z " fill="#020202" transform="translate(147,194)"/>
<path d="M0 0 C21.3853211 -0.67889908 21.3853211 -0.67889908 29.625 6.1875 C31.59589447 10.21887506 31.86861154 13.60265408 31 18 C28.23003367 22.82510264 25.27970036 24.99241267 19.95703125 26.54296875 C13.3482495 27.5644053 6.66509965 27.1574433 0 27 C0 18.09 0 9.18 0 0 Z " fill="#F7F7F7" transform="translate(474,258)"/>
<path d="M0 0 C2 1 2 1 2.7902832 2.97094727 C3.16672974 4.25569946 3.16672974 4.25569946 3.55078125 5.56640625 C3.83493896 6.51999023 4.11909668 7.47357422 4.41186523 8.45605469 C4.70907471 9.48118164 5.00628418 10.50630859 5.3125 11.5625 C5.93424582 13.66295293 6.55664545 15.76321244 7.1796875 17.86328125 C7.48616211 18.90307129 7.79263672 19.94286133 8.10839844 21.01416016 C9.70879008 26.37363161 11.43508848 31.69268584 13.15234375 37.015625 C14 40 14 40 14 43 C4.76 43 -4.48 43 -14 43 C-12.234972 36.52823065 -10.50682673 30.22842293 -8.30078125 23.92578125 C-8.0608696 23.23107224 -7.82095795 22.53636322 -7.57377625 21.82060242 C-6.82335684 19.65006082 -6.06804244 17.4812629 -5.3125 15.3125 C-4.79589521 13.82107737 -4.27961686 12.32954163 -3.76367188 10.83789062 C-2.51286802 7.22394746 -1.25767814 3.61155632 0 0 Z " fill="#F5F5F5" transform="translate(370,218)"/>
<path d="M0 0 C19.79912575 -0.62359451 19.79912575 -0.62359451 26 4 C28.46888685 7.70333027 28.66413003 10.70417157 28 15 C25.45168569 19.58696576 21.91955124 21.53918544 17 23 C14.00253713 23.33139652 11.07303326 23.28731132 8.0625 23.1875 C4.0715625 23.0946875 4.0715625 23.0946875 0 23 C0 15.41 0 7.82 0 0 Z " fill="#FAFAFA" transform="translate(474,215)"/>
<path d="M0 0 C2.475 0.495 2.475 0.495 5 1 C6.328125 3.25 6.328125 3.25 7.25 6 C8.1834353 9.26349709 8.1834353 9.26349709 10 12 C11.65 8.04 13.3 4.08 15 0 C16.32 0 17.64 0 19 0 C19 5.94 19 11.88 19 18 C18.01 18 17.02 18 16 18 C15.67 14.7 15.34 11.4 15 8 C13.68 11.3 12.36 14.6 11 18 C10.01 18 9.02 18 8 18 C6.68 14.37 5.36 10.74 4 7 C3.67 10.63 3.34 14.26 3 18 C2.01 18 1.02 18 0 18 C0 12.06 0 6.12 0 0 Z " fill="#3C3C3C" transform="translate(862,195)"/>
<path d="M0 0 C2.475 0.495 2.475 0.495 5 1 C6.22126406 3.43951265 7.04460207 5.48689482 7.8125 8.0625 C8.02841797 8.72572266 8.24433594 9.38894531 8.46679688 10.07226562 C8.99663758 11.70888468 9.5008206 13.35377006 10 15 C9.01 15 8.02 15 7 15 C6.01 12.36 5.02 9.72 4 7 C3.67 10.63 3.34 14.26 3 18 C2.01 18 1.02 18 0 18 C0 12.06 0 6.12 0 0 Z " fill="#474747" transform="translate(862,195)"/>
<path d="M0 0 C4.62 0 9.24 0 14 0 C14 0.99 14 1.98 14 3 C12.02 3 10.04 3 8 3 C8 7.95 8 12.9 8 18 C7.34 18 6.68 18 6 18 C6 13.05 6 8.1 6 3 C4.02 3 2.04 3 0 3 C0 2.01 0 1.02 0 0 Z " fill="#262626" transform="translate(846,195)"/>
<path d="M0 0 C1.32 0 2.64 0 4 0 C4 5.94 4 11.88 4 18 C3.34 18 2.68 18 2 18 C1.95101562 17.07316406 1.90203125 16.14632812 1.8515625 15.19140625 C1.77679687 13.99386719 1.70203125 12.79632813 1.625 11.5625 C1.55539062 10.36753906 1.48578125 9.17257813 1.4140625 7.94140625 C1.27742187 6.97074219 1.14078125 6.00007812 1 5 C0.34 4.67 -0.32 4.34 -1 4 C-0.67 2.68 -0.34 1.36 0 0 Z " fill="#131313" transform="translate(877,195)"/>
<path d="M0 0 C1.32 0 2.64 0 4 0 C3.67 1.32 3.34 2.64 3 4 C2.67 3.67 2.34 3.34 2 3 C1.67 7.29 1.34 11.58 1 16 C0.67 16 0.34 16 0 16 C0 10.72 0 5.44 0 0 Z " fill="#030303" transform="translate(863,196)"/>
</svg>
